<svg id="visual" viewBox="0 0 1920 1080" width="1920" height="1080" xmlns="http://www.w3.org/2000/svg" xmlns:xlink="http://www.w3.org/1999/xlink" version="1.1"><path d="M0 368L160 341C320 314 640 260 960 213.2C1280 166.3 1600 126.7 1760 106.8L1920 87L1920 0L1760 0C1600 0 1280 0 960 0C640 0 320 0 160 0L0 0Z" fill="#d9d9d9"></path><path d="M0 422L160 411.2C320 400.3 640 378.7 960 340.8C1280 303 1600 249 1760 222L1920 195L1920 85L1760 104.8C1600 124.7 1280 164.3 960 211.2C640 258 320 312 160 339L0 366Z" fill="#d3d3d3"></path><path d="M0 476L160 456.2C320 436.3 640 396.7 960 360.7C1280 324.7 1600 292.3 1760 276.2L1920 260L1920 193L1760 220C1600 247 1280 301 960 338.8C640 376.7 320 398.3 160 409.2L0 420Z" fill="#cdcdcd"></path><path d="M0 530L160 510.2C320 490.3 640 450.7 960 418.3C1280 386 1600 361 1760 348.5L1920 336L1920 258L1760 274.2C1600 290.3 1280 322.7 960 358.7C640 394.7 320 434.3 160 454.2L0 474Z" fill="#c7c7c7"></path><path d="M0 617L160 600.7C320 584.3 640 551.7 960 521C1280 490.3 1600 461.7 1760 447.3L1920 433L1920 334L1760 346.5C1600 359 1280 384 960 416.3C640 448.7 320 488.3 160 508.2L0 528Z" fill="#c1c1c1"></path><path d="M0 703L160 677.8C320 652.7 640 602.3 960 564.5C1280 526.7 1600 501.3 1760 488.7L1920 476L1920 431L1760 445.3C1600 459.7 1280 488.3 960 519C640 549.7 320 582.3 160 598.7L0 615Z" fill="#bbbbbb"></path><path d="M0 735L160 715.3C320 695.7 640 656.3 960 620.3C1280 584.3 1600 551.7 1760 535.3L1920 519L1920 474L1760 486.7C1600 499.3 1280 524.7 960 562.5C640 600.3 320 650.7 160 675.8L0 701Z" fill="#b5b5b5"></path><path d="M0 757L160 735.3C320 713.7 640 670.3 960 638C1280 605.7 1600 584.3 1760 573.7L1920 563L1920 517L1760 533.3C1600 549.7 1280 582.3 960 618.3C640 654.3 320 693.7 160 713.3L0 733Z" fill="#afafaf"></path><path d="M0 779L160 757.3C320 735.7 640 692.3 960 661.7C1280 631 1600 613 1760 604L1920 595L1920 561L1760 571.7C1600 582.3 1280 603.7 960 636C640 668.3 320 711.7 160 733.3L0 755Z" fill="#aaaaaa"></path><path d="M0 800L160 792.8C320 785.7 640 771.3 960 748C1280 724.7 1600 692.3 1760 676.2L1920 660L1920 593L1760 602C1600 611 1280 629 960 659.7C640 690.3 320 733.7 160 755.3L0 777Z" fill="#a4a4a4"></path><path d="M0 930L160 935.3C320 940.7 640 951.3 960 976.5C1280 1001.7 1600 1041.3 1760 1061.2L1920 1081L1920 658L1760 674.2C1600 690.3 1280 722.7 960 746C640 769.3 320 783.7 160 790.8L0 798Z" fill="#9f9f9f"></path><path d="M0 1081L160 1081C320 1081 640 1081 960 1081C1280 1081 1600 1081 1760 1081L1920 1081L1920 1079L1760 1059.2C1600 1039.3 1280 999.7 960 974.5C640 949.3 320 938.7 160 933.3L0 928Z" fill="#999999"></path></svg>