<svg id="visual" viewBox="0 0 900 600" width="900" height="600" xmlns="http://www.w3.org/2000/svg" xmlns:xlink="http://www.w3.org/1999/xlink" version="1.1"><rect x="0" y="0" width="900" height="600" fill="#121212"></rect><path d="M0 428L18.8 404.5C37.7 381 75.3 334 112.8 305.7C150.3 277.3 187.7 267.7 225.2 281.2C262.7 294.7 300.3 331.3 337.8 333C375.3 334.7 412.7 301.3 450.2 309.3C487.7 317.3 525.3 366.7 562.8 375.3C600.3 384 637.7 352 675.2 351.5C712.7 351 750.3 382 787.8 369.5C825.3 357 862.7 301 881.3 273L900 245L900 601L881.3 601C862.7 601 825.3 601 787.8 601C750.3 601 712.7 601 675.2 601C637.7 601 600.3 601 562.8 601C525.3 601 487.7 601 450.2 601C412.7 601 375.3 601 337.8 601C300.3 601 262.7 601 225.2 601C187.7 601 150.3 601 112.8 601C75.3 601 37.7 601 18.8 601L0 601Z" fill="#0f0f0f"></path><path d="M0 326L18.8 329.8C37.7 333.7 75.3 341.3 112.8 343.8C150.3 346.3 187.7 343.7 225.2 340.7C262.7 337.7 300.3 334.3 337.8 351.5C375.3 368.7 412.7 406.3 450.2 420.7C487.7 435 525.3 426 562.8 428.2C600.3 430.3 637.7 443.7 675.2 432.2C712.7 420.7 750.3 384.3 787.8 353C825.3 321.7 862.7 295.3 881.3 282.2L900 269L900 601L881.3 601C862.7 601 825.3 601 787.8 601C750.3 601 712.7 601 675.2 601C637.7 601 600.3 601 562.8 601C525.3 601 487.7 601 450.2 601C412.7 601 375.3 601 337.8 601C300.3 601 262.7 601 225.2 601C187.7 601 150.3 601 112.8 601C75.3 601 37.7 601 18.8 601L0 601Z" fill="#231718"></path><path d="M0 386L18.8 383.2C37.7 380.3 75.3 374.7 112.8 367.3C150.3 360 187.7 351 225.2 349.3C262.7 347.7 300.3 353.3 337.8 363C375.3 372.7 412.7 386.3 450.2 379.8C487.7 373.3 525.3 346.7 562.8 353.5C600.3 360.3 637.7 400.7 675.2 423.2C712.7 445.7 750.3 450.3 787.8 444.5C825.3 438.7 862.7 422.3 881.3 414.2L900 406L900 601L881.3 601C862.7 601 825.3 601 787.8 601C750.3 601 712.7 601 675.2 601C637.7 601 600.3 601 562.8 601C525.3 601 487.7 601 450.2 601C412.7 601 375.3 601 337.8 601C300.3 601 262.7 601 225.2 601C187.7 601 150.3 601 112.8 601C75.3 601 37.7 601 18.8 601L0 601Z" fill="#361c21"></path><path d="M0 415L18.8 410.7C37.7 406.3 75.3 397.7 112.8 400.5C150.3 403.3 187.7 417.7 225.2 431.7C262.7 445.7 300.3 459.3 337.8 445.3C375.3 431.3 412.7 389.7 450.2 389.2C487.7 388.7 525.3 429.3 562.8 433.2C600.3 437 637.7 404 675.2 406.5C712.7 409 750.3 447 787.8 457.7C825.3 468.3 862.7 451.7 881.3 443.3L900 435L900 601L881.3 601C862.7 601 825.3 601 787.8 601C750.3 601 712.7 601 675.2 601C637.7 601 600.3 601 562.8 601C525.3 601 487.7 601 450.2 601C412.7 601 375.3 601 337.8 601C300.3 601 262.7 601 225.2 601C187.7 601 150.3 601 112.8 601C75.3 601 37.7 601 18.8 601L0 601Z" fill="#492229"></path><path d="M0 497L18.8 488.2C37.7 479.3 75.3 461.7 112.8 441.7C150.3 421.7 187.7 399.3 225.2 388C262.7 376.7 300.3 376.3 337.8 383.5C375.3 390.7 412.7 405.3 450.2 424C487.7 442.7 525.3 465.3 562.8 458.3C600.3 451.3 637.7 414.7 675.2 397.2C712.7 379.7 750.3 381.3 787.8 400.2C825.3 419 862.7 455 881.3 473L900 491L900 601L881.3 601C862.7 601 825.3 601 787.8 601C750.3 601 712.7 601 675.2 601C637.7 601 600.3 601 562.8 601C525.3 601 487.7 601 450.2 601C412.7 601 375.3 601 337.8 601C300.3 601 262.7 601 225.2 601C187.7 601 150.3 601 112.8 601C75.3 601 37.7 601 18.8 601L0 601Z" fill="#5d2732"></path><path d="M0 491L18.8 476.5C37.7 462 75.3 433 112.8 419.7C150.3 406.3 187.7 408.7 225.2 422.5C262.7 436.3 300.3 461.7 337.8 463.8C375.3 466 412.7 445 450.2 449.7C487.7 454.3 525.3 484.7 562.8 480.5C600.3 476.3 637.7 437.7 675.2 425.3C712.7 413 750.3 427 787.8 444.8C825.3 462.7 862.7 484.3 881.3 495.2L900 506L900 601L881.3 601C862.7 601 825.3 601 787.8 601C750.3 601 712.7 601 675.2 601C637.7 601 600.3 601 562.8 601C525.3 601 487.7 601 450.2 601C412.7 601 375.3 601 337.8 601C300.3 601 262.7 601 225.2 601C187.7 601 150.3 601 112.8 601C75.3 601 37.7 601 18.8 601L0 601Z" fill="#722c3b"></path><path d="M0 502L18.8 501.2C37.7 500.3 75.3 498.7 112.8 499.2C150.3 499.7 187.7 502.3 225.2 495.8C262.7 489.3 300.3 473.7 337.8 472.8C375.3 472 412.7 486 450.2 496.2C487.7 506.3 525.3 512.7 562.8 515C600.3 517.3 637.7 515.7 675.2 507.3C712.7 499 750.3 484 787.8 477.2C825.3 470.3 862.7 471.7 881.3 472.3L900 473L900 601L881.3 601C862.7 601 825.3 601 787.8 601C750.3 601 712.7 601 675.2 601C637.7 601 600.3 601 562.8 601C525.3 601 487.7 601 450.2 601C412.7 601 375.3 601 337.8 601C300.3 601 262.7 601 225.2 601C187.7 601 150.3 601 112.8 601C75.3 601 37.7 601 18.8 601L0 601Z" fill="#883045"></path><path d="M0 497L18.8 502.7C37.7 508.3 75.3 519.7 112.8 522.8C150.3 526 187.7 521 225.2 513.7C262.7 506.3 300.3 496.7 337.8 484.7C375.3 472.7 412.7 458.3 450.2 457C487.7 455.7 525.3 467.3 562.8 470C600.3 472.7 637.7 466.3 675.2 466C712.7 465.7 750.3 471.3 787.8 478.7C825.3 486 862.7 495 881.3 499.5L900 504L900 601L881.3 601C862.7 601 825.3 601 787.8 601C750.3 601 712.7 601 675.2 601C637.7 601 600.3 601 562.8 601C525.3 601 487.7 601 450.2 601C412.7 601 375.3 601 337.8 601C300.3 601 262.7 601 225.2 601C187.7 601 150.3 601 112.8 601C75.3 601 37.7 601 18.8 601L0 601Z" fill="#9e354e"></path><path d="M0 484L18.8 496.2C37.7 508.3 75.3 532.7 112.8 533.2C150.3 533.7 187.7 510.3 225.2 507C262.7 503.7 300.3 520.3 337.8 522.8C375.3 525.3 412.7 513.7 450.2 501C487.7 488.3 525.3 474.7 562.8 480.7C600.3 486.7 637.7 512.3 675.2 517.5C712.7 522.7 750.3 507.3 787.8 504.8C825.3 502.3 862.7 512.7 881.3 517.8L900 523L900 601L881.3 601C862.7 601 825.3 601 787.8 601C750.3 601 712.7 601 675.2 601C637.7 601 600.3 601 562.8 601C525.3 601 487.7 601 450.2 601C412.7 601 375.3 601 337.8 601C300.3 601 262.7 601 225.2 601C187.7 601 150.3 601 112.8 601C75.3 601 37.7 601 18.8 601L0 601Z" fill="#b43958"></path><path d="M0 531L18.8 535C37.7 539 75.3 547 112.8 546.5C150.3 546 187.7 537 225.2 539C262.7 541 300.3 554 337.8 551.8C375.3 549.7 412.7 532.3 450.2 524.8C487.7 517.3 525.3 519.7 562.8 522.2C600.3 524.7 637.7 527.3 675.2 522.7C712.7 518 750.3 506 787.8 505.7C825.3 505.3 862.7 516.7 881.3 522.3L900 528L900 601L881.3 601C862.7 601 825.3 601 787.8 601C750.3 601 712.7 601 675.2 601C637.7 601 600.3 601 562.8 601C525.3 601 487.7 601 450.2 601C412.7 601 375.3 601 337.8 601C300.3 601 262.7 601 225.2 601C187.7 601 150.3 601 112.8 601C75.3 601 37.7 601 18.8 601L0 601Z" fill="#cb3c62"></path><path d="M0 520L18.8 521.8C37.7 523.7 75.3 527.3 112.8 528.5C150.3 529.7 187.7 528.3 225.2 528.3C262.7 528.3 300.3 529.7 337.8 532.3C375.3 535 412.7 539 450.2 539.7C487.7 540.3 525.3 537.7 562.8 539.3C600.3 541 637.7 547 675.2 547.5C712.7 548 750.3 543 787.8 539.7C825.3 536.3 862.7 534.7 881.3 533.8L900 533L900 601L881.3 601C862.7 601 825.3 601 787.8 601C750.3 601 712.7 601 675.2 601C637.7 601 600.3 601 562.8 601C525.3 601 487.7 601 450.2 601C412.7 601 375.3 601 337.8 601C300.3 601 262.7 601 225.2 601C187.7 601 150.3 601 112.8 601C75.3 601 37.7 601 18.8 601L0 601Z" fill="#e3406c"></path><path d="M0 545L18.8 553.3C37.7 561.7 75.3 578.3 112.8 580.2C150.3 582 187.7 569 225.2 568.8C262.7 568.7 300.3 581.3 337.8 582.3C375.3 583.3 412.7 572.7 450.2 564.7C487.7 556.7 525.3 551.3 562.8 555.8C600.3 560.3 637.7 574.7 675.2 576.3C712.7 578 750.3 567 787.8 567.2C825.3 567.3 862.7 578.7 881.3 584.3L900 590L900 601L881.3 601C862.7 601 825.3 601 787.8 601C750.3 601 712.7 601 675.2 601C637.7 601 600.3 601 562.8 601C525.3 601 487.7 601 450.2 601C412.7 601 375.3 601 337.8 601C300.3 601 262.7 601 225.2 601C187.7 601 150.3 601 112.8 601C75.3 601 37.7 601 18.8 601L0 601Z" fill="#fb4376"></path></svg>