<svg id="visual" viewBox="0 0 1920 1080" width="1920" height="1080" xmlns="http://www.w3.org/2000/svg" xmlns:xlink="http://www.w3.org/1999/xlink" version="1.1"><rect x="0" y="0" width="1920" height="1080" fill="#ccc"></rect><path d="M0 691L45.7 696.7C91.3 702.3 182.7 713.7 274.2 693.2C365.7 672.7 457.3 620.3 548.8 615.2C640.3 610 731.7 652 823 646.7C914.3 641.3 1005.7 588.7 1097 586.7C1188.3 584.7 1279.7 633.3 1371.2 651.2C1462.7 669 1554.3 656 1645.8 662.3C1737.3 668.7 1828.7 694.3 1874.3 707.2L1920 720L1920 1081L1874.3 1081C1828.7 1081 1737.3 1081 1645.8 1081C1554.3 1081 1462.7 1081 1371.2 1081C1279.7 1081 1188.3 1081 1097 1081C1005.7 1081 914.3 1081 823 1081C731.7 1081 640.3 1081 548.8 1081C457.3 1081 365.7 1081 274.2 1081C182.7 1081 91.3 1081 45.7 1081L0 1081Z" fill="#ffffff"></path><path d="M0 720L45.7 703C91.3 686 182.7 652 274.2 645.3C365.7 638.7 457.3 659.3 548.8 672C640.3 684.7 731.7 689.3 823 693.8C914.3 698.3 1005.7 702.7 1097 683.3C1188.3 664 1279.7 621 1371.2 604.5C1462.7 588 1554.3 598 1645.8 633.2C1737.3 668.3 1828.7 728.7 1874.3 758.8L1920 789L1920 1081L1874.3 1081C1828.7 1081 1737.3 1081 1645.8 1081C1554.3 1081 1462.7 1081 1371.2 1081C1279.7 1081 1188.3 1081 1097 1081C1005.7 1081 914.3 1081 823 1081C731.7 1081 640.3 1081 548.8 1081C457.3 1081 365.7 1081 274.2 1081C182.7 1081 91.3 1081 45.7 1081L0 1081Z" fill="#f4ebed"></path><path d="M0 748L45.7 752.2C91.3 756.3 182.7 764.7 274.2 766.5C365.7 768.3 457.3 763.7 548.8 749.2C640.3 734.7 731.7 710.3 823 679C914.3 647.7 1005.7 609.3 1097 591.7C1188.3 574 1279.7 577 1371.2 619C1462.7 661 1554.3 742 1645.8 757.3C1737.3 772.7 1828.7 722.3 1874.3 697.2L1920 672L1920 1081L1874.3 1081C1828.7 1081 1737.3 1081 1645.8 1081C1554.3 1081 1462.7 1081 1371.2 1081C1279.7 1081 1188.3 1081 1097 1081C1005.7 1081 914.3 1081 823 1081C731.7 1081 640.3 1081 548.8 1081C457.3 1081 365.7 1081 274.2 1081C182.7 1081 91.3 1081 45.7 1081L0 1081Z" fill="#e9d8db"></path><path d="M0 752L45.7 724C91.3 696 182.7 640 274.2 650.8C365.7 661.7 457.3 739.3 548.8 776.3C640.3 813.3 731.7 809.7 823 783C914.3 756.3 1005.7 706.7 1097 699.7C1188.3 692.7 1279.7 728.3 1371.2 752.2C1462.7 776 1554.3 788 1645.8 790.7C1737.3 793.3 1828.7 786.7 1874.3 783.3L1920 780L1920 1081L1874.3 1081C1828.7 1081 1737.3 1081 1645.8 1081C1554.3 1081 1462.7 1081 1371.2 1081C1279.7 1081 1188.3 1081 1097 1081C1005.7 1081 914.3 1081 823 1081C731.7 1081 640.3 1081 548.8 1081C457.3 1081 365.7 1081 274.2 1081C182.7 1081 91.3 1081 45.7 1081L0 1081Z" fill="#dec5ca"></path><path d="M0 894L45.7 884.2C91.3 874.3 182.7 854.7 274.2 827.3C365.7 800 457.3 765 548.8 747.3C640.3 729.7 731.7 729.3 823 714.8C914.3 700.3 1005.7 671.7 1097 690C1188.3 708.3 1279.7 773.7 1371.2 788.7C1462.7 803.7 1554.3 768.3 1645.8 764C1737.3 759.7 1828.7 786.3 1874.3 799.7L1920 813L1920 1081L1874.3 1081C1828.7 1081 1737.3 1081 1645.8 1081C1554.3 1081 1462.7 1081 1371.2 1081C1279.7 1081 1188.3 1081 1097 1081C1005.7 1081 914.3 1081 823 1081C731.7 1081 640.3 1081 548.8 1081C457.3 1081 365.7 1081 274.2 1081C182.7 1081 91.3 1081 45.7 1081L0 1081Z" fill="#d2b2b8"></path><path d="M0 818L45.7 829C91.3 840 182.7 862 274.2 840.5C365.7 819 457.3 754 548.8 721.8C640.3 689.7 731.7 690.3 823 712.2C914.3 734 1005.7 777 1097 816C1188.3 855 1279.7 890 1371.2 894.5C1462.7 899 1554.3 873 1645.8 869.8C1737.3 866.7 1828.7 886.3 1874.3 896.2L1920 906L1920 1081L1874.3 1081C1828.7 1081 1737.3 1081 1645.8 1081C1554.3 1081 1462.7 1081 1371.2 1081C1279.7 1081 1188.3 1081 1097 1081C1005.7 1081 914.3 1081 823 1081C731.7 1081 640.3 1081 548.8 1081C457.3 1081 365.7 1081 274.2 1081C182.7 1081 91.3 1081 45.7 1081L0 1081Z" fill="#c79fa7"></path><path d="M0 755L45.7 778.2C91.3 801.3 182.7 847.7 274.2 847.3C365.7 847 457.3 800 548.8 774.2C640.3 748.3 731.7 743.7 823 761.8C914.3 780 1005.7 821 1097 848.3C1188.3 875.7 1279.7 889.3 1371.2 884.2C1462.7 879 1554.3 855 1645.8 839.7C1737.3 824.3 1828.7 817.7 1874.3 814.3L1920 811L1920 1081L1874.3 1081C1828.7 1081 1737.3 1081 1645.8 1081C1554.3 1081 1462.7 1081 1371.2 1081C1279.7 1081 1188.3 1081 1097 1081C1005.7 1081 914.3 1081 823 1081C731.7 1081 640.3 1081 548.8 1081C457.3 1081 365.7 1081 274.2 1081C182.7 1081 91.3 1081 45.7 1081L0 1081Z" fill="#bb8d97"></path><path d="M0 962L45.7 933.3C91.3 904.7 182.7 847.3 274.2 823C365.7 798.7 457.3 807.3 548.8 823.5C640.3 839.7 731.7 863.3 823 878.7C914.3 894 1005.7 901 1097 916.3C1188.3 931.7 1279.7 955.3 1371.2 954.2C1462.7 953 1554.3 927 1645.8 918.2C1737.3 909.3 1828.7 917.7 1874.3 921.8L1920 926L1920 1081L1874.3 1081C1828.7 1081 1737.3 1081 1645.8 1081C1554.3 1081 1462.7 1081 1371.2 1081C1279.7 1081 1188.3 1081 1097 1081C1005.7 1081 914.3 1081 823 1081C731.7 1081 640.3 1081 548.8 1081C457.3 1081 365.7 1081 274.2 1081C182.7 1081 91.3 1081 45.7 1081L0 1081Z" fill="#af7b86"></path><path d="M0 874L45.7 872C91.3 870 182.7 866 274.2 877C365.7 888 457.3 914 548.8 914.3C640.3 914.7 731.7 889.3 823 883.2C914.3 877 1005.7 890 1097 912.2C1188.3 934.3 1279.7 965.7 1371.2 963.2C1462.7 960.7 1554.3 924.3 1645.8 922.3C1737.3 920.3 1828.7 952.7 1874.3 968.8L1920 985L1920 1081L1874.3 1081C1828.7 1081 1737.3 1081 1645.8 1081C1554.3 1081 1462.7 1081 1371.2 1081C1279.7 1081 1188.3 1081 1097 1081C1005.7 1081 914.3 1081 823 1081C731.7 1081 640.3 1081 548.8 1081C457.3 1081 365.7 1081 274.2 1081C182.7 1081 91.3 1081 45.7 1081L0 1081Z" fill="#a36976"></path><path d="M0 956L45.7 956C91.3 956 182.7 956 274.2 944.8C365.7 933.7 457.3 911.3 548.8 903.3C640.3 895.3 731.7 901.7 823 920.8C914.3 940 1005.7 972 1097 988.2C1188.3 1004.3 1279.7 1004.7 1371.2 994.7C1462.7 984.7 1554.3 964.3 1645.8 968C1737.3 971.7 1828.7 999.3 1874.3 1013.2L1920 1027L1920 1081L1874.3 1081C1828.7 1081 1737.3 1081 1645.8 1081C1554.3 1081 1462.7 1081 1371.2 1081C1279.7 1081 1188.3 1081 1097 1081C1005.7 1081 914.3 1081 823 1081C731.7 1081 640.3 1081 548.8 1081C457.3 1081 365.7 1081 274.2 1081C182.7 1081 91.3 1081 45.7 1081L0 1081Z" fill="#975767"></path><path d="M0 1003L45.7 1005.8C91.3 1008.7 182.7 1014.3 274.2 1008.8C365.7 1003.3 457.3 986.7 548.8 987.2C640.3 987.7 731.7 1005.3 823 1005.7C914.3 1006 1005.7 989 1097 978.2C1188.3 967.3 1279.7 962.7 1371.2 974.8C1462.7 987 1554.3 1016 1645.8 1029.3C1737.3 1042.7 1828.7 1040.3 1874.3 1039.2L1920 1038L1920 1081L1874.3 1081C1828.7 1081 1737.3 1081 1645.8 1081C1554.3 1081 1462.7 1081 1371.2 1081C1279.7 1081 1188.3 1081 1097 1081C1005.7 1081 914.3 1081 823 1081C731.7 1081 640.3 1081 548.8 1081C457.3 1081 365.7 1081 274.2 1081C182.7 1081 91.3 1081 45.7 1081L0 1081Z" fill="#8b4658"></path><path d="M0 1038L45.7 1040.2C91.3 1042.3 182.7 1046.7 274.2 1038C365.7 1029.3 457.3 1007.7 548.8 1007.2C640.3 1006.7 731.7 1027.3 823 1041.5C914.3 1055.7 1005.7 1063.3 1097 1052.8C1188.3 1042.3 1279.7 1013.7 1371.2 1003C1462.7 992.3 1554.3 999.7 1645.8 1009C1737.3 1018.3 1828.7 1029.7 1874.3 1035.3L1920 1041L1920 1081L1874.3 1081C1828.7 1081 1737.3 1081 1645.8 1081C1554.3 1081 1462.7 1081 1371.2 1081C1279.7 1081 1188.3 1081 1097 1081C1005.7 1081 914.3 1081 823 1081C731.7 1081 640.3 1081 548.8 1081C457.3 1081 365.7 1081 274.2 1081C182.7 1081 91.3 1081 45.7 1081L0 1081Z" fill="#7e3449"></path></svg>