<svg id="visual" viewBox="0 0 1920 1080" width="1920" height="1080" xmlns="http://www.w3.org/2000/svg" xmlns:xlink="http://www.w3.org/1999/xlink" version="1.1"><path d="M0 66L160 66C320 66 640 66 960 60.5C1280 55 1600 44 1760 38.5L1920 33L1920 0L1760 0C1600 0 1280 0 960 0C640 0 320 0 160 0L0 0Z" fill="#333333"></path><path d="M0 163L160 164.8C320 166.7 640 170.3 960 188.3C1280 206.3 1600 238.7 1760 254.8L1920 271L1920 31L1760 36.5C1600 42 1280 53 960 58.5C640 64 320 64 160 64L0 64Z" fill="#2f2f2f"></path><path d="M0 239L160 233.5C320 228 640 217 960 244C1280 271 1600 336 1760 368.5L1920 401L1920 269L1760 252.8C1600 236.7 1280 204.3 960 186.3C640 168.3 320 164.7 160 162.8L0 161Z" fill="#2b2b2b"></path><path d="M0 379L160 379C320 379 640 379 960 382.7C1280 386.3 1600 393.7 1760 397.3L1920 401L1920 399L1760 366.5C1600 334 1280 269 960 242C640 215 320 226 160 231.5L0 237Z" fill="#272727"></path><path d="M0 411L160 411C320 411 640 411 960 418.3C1280 425.7 1600 440.3 1760 447.7L1920 455L1920 399L1760 395.3C1600 391.7 1280 384.3 960 380.7C640 377 320 377 160 377L0 377Z" fill="#232323"></path><path d="M0 617L160 617C320 617 640 617 960 635C1280 653 1600 689 1760 707L1920 725L1920 453L1760 445.7C1600 438.3 1280 423.7 960 416.3C640 409 320 409 160 409L0 409Z" fill="#1f1f1f"></path><path d="M0 757L160 764.2C320 771.3 640 785.7 960 791C1280 796.3 1600 792.7 1760 790.8L1920 789L1920 723L1760 705C1600 687 1280 651 960 633C640 615 320 615 160 615L0 615Z" fill="#1b1b1b"></path><path d="M0 854L160 859.5C320 865 640 876 960 885C1280 894 1600 901 1760 904.5L1920 908L1920 787L1760 788.8C1600 790.7 1280 794.3 960 789C640 783.7 320 769.3 160 762.2L0 755Z" fill="#171717"></path><path d="M0 887L160 897.7C320 908.3 640 929.7 960 938.7C1280 947.7 1600 944.3 1760 942.7L1920 941L1920 906L1760 902.5C1600 899 1280 892 960 883C640 874 320 863 160 857.5L0 852Z" fill="#131313"></path><path d="M0 973L160 971.2C320 969.3 640 965.7 960 969.3C1280 973 1600 984 1760 989.5L1920 995L1920 939L1760 940.7C1600 942.3 1280 945.7 960 936.7C640 927.7 320 906.3 160 895.7L0 885Z" fill="#0e0e0e"></path><path d="M0 1016L160 1025C320 1034 640 1052 960 1055.7C1280 1059.3 1600 1048.7 1760 1043.3L1920 1038L1920 993L1760 987.5C1600 982 1280 971 960 967.3C640 963.7 320 967.3 160 969.2L0 971Z" fill="#070707"></path><path d="M0 1081L160 1081C320 1081 640 1081 960 1081C1280 1081 1600 1081 1760 1081L1920 1081L1920 1036L1760 1041.3C1600 1046.7 1280 1057.3 960 1053.7C640 1050 320 1032 160 1023L0 1014Z" fill="#000000"></path></svg>