<svg id="visual" viewBox="0 0 1920 1080" width="1920" height="1080" xmlns="http://www.w3.org/2000/svg" xmlns:xlink="http://www.w3.org/1999/xlink" version="1.1"><rect x="0" y="0" width="1920" height="1080" fill="#121212"></rect><path d="M0 537L40 529.3C80 521.7 160 506.3 240 529.5C320 552.7 400 614.3 480 607.7C560 601 640 526 720 500.7C800 475.3 880 499.7 960 552.2C1040 604.7 1120 685.3 1200 699.7C1280 714 1360 662 1440 612.2C1520 562.3 1600 514.7 1680 529.8C1760 545 1840 623 1880 662L1920 701L1920 1081L1880 1081C1840 1081 1760 1081 1680 1081C1600 1081 1520 1081 1440 1081C1360 1081 1280 1081 1200 1081C1120 1081 1040 1081 960 1081C880 1081 800 1081 720 1081C640 1081 560 1081 480 1081C400 1081 320 1081 240 1081C160 1081 80 1081 40 1081L0 1081Z" fill="#0f0f0f"></path><path d="M0 658L40 655.7C80 653.3 160 648.7 240 666.2C320 683.7 400 723.3 480 749.8C560 776.3 640 789.7 720 796.5C800 803.3 880 803.7 960 751.3C1040 699 1120 594 1200 591.7C1280 589.3 1360 689.7 1440 729.5C1520 769.3 1600 748.7 1680 748.5C1760 748.3 1840 768.7 1880 778.8L1920 789L1920 1081L1880 1081C1840 1081 1760 1081 1680 1081C1600 1081 1520 1081 1440 1081C1360 1081 1280 1081 1200 1081C1120 1081 1040 1081 960 1081C880 1081 800 1081 720 1081C640 1081 560 1081 480 1081C400 1081 320 1081 240 1081C160 1081 80 1081 40 1081L0 1081Z" fill="#22181a"></path><path d="M0 642L40 667.5C80 693 160 744 240 766.8C320 789.7 400 784.3 480 781C560 777.7 640 776.3 720 773.3C800 770.3 880 765.7 960 747C1040 728.3 1120 695.7 1200 673C1280 650.3 1360 637.7 1440 662.7C1520 687.7 1600 750.3 1680 753.3C1760 756.3 1840 699.7 1880 671.3L1920 643L1920 1081L1880 1081C1840 1081 1760 1081 1680 1081C1600 1081 1520 1081 1440 1081C1360 1081 1280 1081 1200 1081C1120 1081 1040 1081 960 1081C880 1081 800 1081 720 1081C640 1081 560 1081 480 1081C400 1081 320 1081 240 1081C160 1081 80 1081 40 1081L0 1081Z" fill="#352025"></path><path d="M0 714L40 705C80 696 160 678 240 672.2C320 666.3 400 672.7 480 667.5C560 662.3 640 645.7 720 647.2C800 648.7 880 668.3 960 700.5C1040 732.7 1120 777.3 1200 761C1280 744.7 1360 667.3 1440 676.8C1520 686.3 1600 782.7 1680 808.8C1760 835 1840 791 1880 769L1920 747L1920 1081L1880 1081C1840 1081 1760 1081 1680 1081C1600 1081 1520 1081 1440 1081C1360 1081 1280 1081 1200 1081C1120 1081 1040 1081 960 1081C880 1081 800 1081 720 1081C640 1081 560 1081 480 1081C400 1081 320 1081 240 1081C160 1081 80 1081 40 1081L0 1081Z" fill="#492830"></path><path d="M0 899L40 883.2C80 867.3 160 835.7 240 819.2C320 802.7 400 801.3 480 786.3C560 771.3 640 742.7 720 748C800 753.3 880 792.7 960 779C1040 765.3 1120 698.7 1200 679.7C1280 660.7 1360 689.3 1440 690.3C1520 691.3 1600 664.7 1680 692.5C1760 720.3 1840 802.7 1880 843.8L1920 885L1920 1081L1880 1081C1840 1081 1760 1081 1680 1081C1600 1081 1520 1081 1440 1081C1360 1081 1280 1081 1200 1081C1120 1081 1040 1081 960 1081C880 1081 800 1081 720 1081C640 1081 560 1081 480 1081C400 1081 320 1081 240 1081C160 1081 80 1081 40 1081L0 1081Z" fill="#5d303b"></path><path d="M0 741L40 759.2C80 777.3 160 813.7 240 841.5C320 869.3 400 888.7 480 867.8C560 847 640 786 720 781.8C800 777.7 880 830.3 960 854.8C1040 879.3 1120 875.7 1200 864.8C1280 854 1360 836 1440 806.8C1520 777.7 1600 737.3 1680 720.5C1760 703.7 1840 710.3 1880 713.7L1920 717L1920 1081L1880 1081C1840 1081 1760 1081 1680 1081C1600 1081 1520 1081 1440 1081C1360 1081 1280 1081 1200 1081C1120 1081 1040 1081 960 1081C880 1081 800 1081 720 1081C640 1081 560 1081 480 1081C400 1081 320 1081 240 1081C160 1081 80 1081 40 1081L0 1081Z" fill="#723847"></path><path d="M0 924L40 904.8C80 885.7 160 847.3 240 821.2C320 795 400 781 480 779.5C560 778 640 789 720 795C800 801 880 802 960 826.8C1040 851.7 1120 900.3 1200 912.3C1280 924.3 1360 899.7 1440 864.8C1520 830 1600 785 1680 773.2C1760 761.3 1840 782.7 1880 793.3L1920 804L1920 1081L1880 1081C1840 1081 1760 1081 1680 1081C1600 1081 1520 1081 1440 1081C1360 1081 1280 1081 1200 1081C1120 1081 1040 1081 960 1081C880 1081 800 1081 720 1081C640 1081 560 1081 480 1081C400 1081 320 1081 240 1081C160 1081 80 1081 40 1081L0 1081Z" fill="#884053"></path><path d="M0 886L40 887.8C80 889.7 160 893.3 240 908C320 922.7 400 948.3 480 937.7C560 927 640 880 720 852.8C800 825.7 880 818.3 960 816.5C1040 814.7 1120 818.3 1200 841.2C1280 864 1360 906 1440 916.8C1520 927.7 1600 907.3 1680 890.2C1760 873 1840 859 1880 852L1920 845L1920 1081L1880 1081C1840 1081 1760 1081 1680 1081C1600 1081 1520 1081 1440 1081C1360 1081 1280 1081 1200 1081C1120 1081 1040 1081 960 1081C880 1081 800 1081 720 1081C640 1081 560 1081 480 1081C400 1081 320 1081 240 1081C160 1081 80 1081 40 1081L0 1081Z" fill="#9e485f"></path><path d="M0 832L40 841.8C80 851.7 160 871.3 240 890C320 908.7 400 926.3 480 929.2C560 932 640 920 720 925.7C800 931.3 880 954.7 960 968.3C1040 982 1120 986 1200 975C1280 964 1360 938 1440 937.2C1520 936.3 1600 960.7 1680 961.2C1760 961.7 1840 938.3 1880 926.7L1920 915L1920 1081L1880 1081C1840 1081 1760 1081 1680 1081C1600 1081 1520 1081 1440 1081C1360 1081 1280 1081 1200 1081C1120 1081 1040 1081 960 1081C880 1081 800 1081 720 1081C640 1081 560 1081 480 1081C400 1081 320 1081 240 1081C160 1081 80 1081 40 1081L0 1081Z" fill="#b5506c"></path><path d="M0 992L40 989.8C80 987.7 160 983.3 240 986.7C320 990 400 1001 480 1006.5C560 1012 640 1012 720 1000C800 988 880 964 960 944.2C1040 924.3 1120 908.7 1200 922.5C1280 936.3 1360 979.7 1440 1001C1520 1022.3 1600 1021.7 1680 1011.3C1760 1001 1840 981 1880 971L1920 961L1920 1081L1880 1081C1840 1081 1760 1081 1680 1081C1600 1081 1520 1081 1440 1081C1360 1081 1280 1081 1200 1081C1120 1081 1040 1081 960 1081C880 1081 800 1081 720 1081C640 1081 560 1081 480 1081C400 1081 320 1081 240 1081C160 1081 80 1081 40 1081L0 1081Z" fill="#cc5879"></path><path d="M0 984L40 979.8C80 975.7 160 967.3 240 977.7C320 988 400 1017 480 1030C560 1043 640 1040 720 1040C800 1040 880 1043 960 1038.8C1040 1034.7 1120 1023.3 1200 1023.5C1280 1023.7 1360 1035.3 1440 1035C1520 1034.7 1600 1022.3 1680 1017.8C1760 1013.3 1840 1016.7 1880 1018.3L1920 1020L1920 1081L1880 1081C1840 1081 1760 1081 1680 1081C1600 1081 1520 1081 1440 1081C1360 1081 1280 1081 1200 1081C1120 1081 1040 1081 960 1081C880 1081 800 1081 720 1081C640 1081 560 1081 480 1081C400 1081 320 1081 240 1081C160 1081 80 1081 40 1081L0 1081Z" fill="#e46186"></path><path d="M0 1079L40 1066.5C80 1054 160 1029 240 1027C320 1025 400 1046 480 1046.5C560 1047 640 1027 720 1021.5C800 1016 880 1025 960 1027.5C1040 1030 1120 1026 1200 1018.8C1280 1011.7 1360 1001.3 1440 1003.8C1520 1006.3 1600 1021.7 1680 1035.7C1760 1049.7 1840 1062.3 1880 1068.7L1920 1075L1920 1081L1880 1081C1840 1081 1760 1081 1680 1081C1600 1081 1520 1081 1440 1081C1360 1081 1280 1081 1200 1081C1120 1081 1040 1081 960 1081C880 1081 800 1081 720 1081C640 1081 560 1081 480 1081C400 1081 320 1081 240 1081C160 1081 80 1081 40 1081L0 1081Z" fill="#fc6993"></path></svg>