<svg id="visual" viewBox="0 0 960 540" width="960" height="540" xmlns="http://www.w3.org/2000/svg" xmlns:xlink="http://www.w3.org/1999/xlink" version="1.1"><path d="M0 23L80 23C160 23 320 23 480 23.8C640 24.7 800 26.3 880 27.2L960 28L960 0L880 0C800 0 640 0 480 0C320 0 160 0 80 0L0 0Z" fill="#ff8ac6"></path><path d="M0 71L80 72C160 73 320 75 480 75C640 75 800 73 880 72L960 71L960 26L880 25.2C800 24.3 640 22.7 480 21.8C320 21 160 21 80 21L0 21Z" fill="#e098e8"></path><path d="M0 179L80 175.5C160 172 320 165 480 161.5C640 158 800 158 880 158L960 158L960 69L880 70C800 71 640 73 480 73C320 73 160 71 80 70L0 69Z" fill="#b5a8fd"></path><path d="M0 217L80 214.3C160 211.7 320 206.3 480 202.7C640 199 800 197 880 196L960 195L960 156L880 156C800 156 640 156 480 159.5C320 163 160 170 80 173.5L0 177Z" fill="#80b6ff"></path><path d="M0 233L80 230.3C160 227.7 320 222.3 480 218.8C640 215.3 800 213.7 880 212.8L960 212L960 193L880 194C800 195 640 197 480 200.7C320 204.3 160 209.7 80 212.3L0 215Z" fill="#3ac2ff"></path><path d="M0 255L80 253.2C160 251.3 320 247.7 480 245C640 242.3 800 240.7 880 239.8L960 239L960 210L880 210.8C800 211.7 640 213.3 480 216.8C320 220.3 160 225.7 80 228.3L0 231Z" fill="#00c6ff"></path><path d="M0 363L80 363C160 363 320 363 480 364.8C640 366.7 800 370.3 880 372.2L960 374L960 237L880 237.8C800 238.7 640 240.3 480 243C320 245.7 160 249.3 80 251.2L0 253Z" fill="#00c6ff"></path><path d="M0 406L80 403.3C160 400.7 320 395.3 480 396.2C640 397 800 404 880 407.5L960 411L960 372L880 370.2C800 368.3 640 364.7 480 362.8C320 361 160 361 80 361L0 361Z" fill="#3ac2ff"></path><path d="M0 444L80 441.3C160 438.7 320 433.3 480 433.3C640 433.3 800 438.7 880 441.3L960 444L960 409L880 405.5C800 402 640 395 480 394.2C320 393.3 160 398.7 80 401.3L0 404Z" fill="#80b6ff"></path><path d="M0 503L80 502.2C160 501.3 320 499.7 480 498.8C640 498 800 498 880 498L960 498L960 442L880 439.3C800 436.7 640 431.3 480 431.3C320 431.3 160 436.7 80 439.3L0 442Z" fill="#b5a8fd"></path><path d="M0 519L80 519C160 519 320 519 480 518.2C640 517.3 800 515.7 880 514.8L960 514L960 496L880 496C800 496 640 496 480 496.8C320 497.7 160 499.3 80 500.2L0 501Z" fill="#e098e8"></path><path d="M0 541L80 541C160 541 320 541 480 541C640 541 800 541 880 541L960 541L960 512L880 512.8C800 513.7 640 515.3 480 516.2C320 517 160 517 80 517L0 517Z" fill="#ff8ac6"></path></svg>