<svg id="visual" viewBox="0 0 960 540" width="960" height="540" xmlns="http://www.w3.org/2000/svg" xmlns:xlink="http://www.w3.org/1999/xlink" version="1.1"><path d="M0 71L80 66.5C160 62 320 53 480 49.5C640 46 800 48 880 49L960 50L960 0L880 0C800 0 640 0 480 0C320 0 160 0 80 0L0 0Z" fill="#ff416c"></path><path d="M0 152L80 148.5C160 145 320 138 480 139.8C640 141.7 800 152.3 880 157.7L960 163L960 48L880 47C800 46 640 44 480 47.5C320 51 160 60 80 64.5L0 69Z" fill="#ff405d"></path><path d="M0 374L80 372.2C160 370.3 320 366.7 480 371.2C640 375.7 800 388.3 880 394.7L960 401L960 161L880 155.7C800 150.3 640 139.7 480 137.8C320 136 160 143 80 146.5L0 150Z" fill="#ff424e"></path><path d="M0 438L80 440.8C160 443.7 320 449.3 480 455.7C640 462 800 469 880 472.5L960 476L960 399L880 392.7C800 386.3 640 373.7 480 369.2C320 364.7 160 368.3 80 370.2L0 372Z" fill="#ff453e"></path><path d="M0 541L80 541C160 541 320 541 480 541C640 541 800 541 880 541L960 541L960 474L880 470.5C800 467 640 460 480 453.7C320 447.3 160 441.7 80 438.8L0 436Z" fill="#ff4b2b"></path></svg>