<svg id="visual" viewBox="0 0 960 540" width="960" height="540" xmlns="http://www.w3.org/2000/svg" xmlns:xlink="http://www.w3.org/1999/xlink" version="1.1"><rect x="0" y="0" width="960" height="540" fill="#FFEB3B"></rect><defs><linearGradient id="grad1_0" x1="43.8%" y1="0%" x2="100%" y2="100%"><stop offset="14.444444444444446%" stop-color="#ff8ac6" stop-opacity="1"></stop><stop offset="85.55555555555554%" stop-color="#ff8ac6" stop-opacity="1"></stop></linearGradient></defs><defs><linearGradient id="grad1_1" x1="43.8%" y1="0%" x2="100%" y2="100%"><stop offset="14.444444444444446%" stop-color="#ff8ac6" stop-opacity="1"></stop><stop offset="85.55555555555554%" stop-color="#ff8bb4" stop-opacity="1"></stop></linearGradient></defs><defs><linearGradient id="grad1_2" x1="43.8%" y1="0%" x2="100%" y2="100%"><stop offset="14.444444444444446%" stop-color="#ff919e" stop-opacity="1"></stop><stop offset="85.55555555555554%" stop-color="#ff8bb4" stop-opacity="1"></stop></linearGradient></defs><defs><linearGradient id="grad1_3" x1="43.8%" y1="0%" x2="100%" y2="100%"><stop offset="14.444444444444446%" stop-color="#ff919e" stop-opacity="1"></stop><stop offset="85.55555555555554%" stop-color="#ff9c86" stop-opacity="1"></stop></linearGradient></defs><defs><linearGradient id="grad1_4" x1="43.8%" y1="0%" x2="100%" y2="100%"><stop offset="14.444444444444446%" stop-color="#ffac6d" stop-opacity="1"></stop><stop offset="85.55555555555554%" stop-color="#ff9c86" stop-opacity="1"></stop></linearGradient></defs><defs><linearGradient id="grad1_5" x1="43.8%" y1="0%" x2="100%" y2="100%"><stop offset="14.444444444444446%" stop-color="#ffac6d" stop-opacity="1"></stop><stop offset="85.55555555555554%" stop-color="#ffc056" stop-opacity="1"></stop></linearGradient></defs><defs><linearGradient id="grad1_6" x1="43.8%" y1="0%" x2="100%" y2="100%"><stop offset="14.444444444444446%" stop-color="#ffd543" stop-opacity="1"></stop><stop offset="85.55555555555554%" stop-color="#ffc056" stop-opacity="1"></stop></linearGradient></defs><defs><linearGradient id="grad1_7" x1="43.8%" y1="0%" x2="100%" y2="100%"><stop offset="14.444444444444446%" stop-color="#ffd543" stop-opacity="1"></stop><stop offset="85.55555555555554%" stop-color="#ffeb3b" stop-opacity="1"></stop></linearGradient></defs><defs><linearGradient id="grad2_0" x1="0%" y1="0%" x2="56.3%" y2="100%"><stop offset="14.444444444444446%" stop-color="#ff8ac6" stop-opacity="1"></stop><stop offset="85.55555555555554%" stop-color="#ff8ac6" stop-opacity="1"></stop></linearGradient></defs><defs><linearGradient id="grad2_1" x1="0%" y1="0%" x2="56.3%" y2="100%"><stop offset="14.444444444444446%" stop-color="#ff8bb4" stop-opacity="1"></stop><stop offset="85.55555555555554%" stop-color="#ff8ac6" stop-opacity="1"></stop></linearGradient></defs><defs><linearGradient id="grad2_2" x1="0%" y1="0%" x2="56.3%" y2="100%"><stop offset="14.444444444444446%" stop-color="#ff8bb4" stop-opacity="1"></stop><stop offset="85.55555555555554%" stop-color="#ff919e" stop-opacity="1"></stop></linearGradient></defs><defs><linearGradient id="grad2_3" x1="0%" y1="0%" x2="56.3%" y2="100%"><stop offset="14.444444444444446%" stop-color="#ff9c86" stop-opacity="1"></stop><stop offset="85.55555555555554%" stop-color="#ff919e" stop-opacity="1"></stop></linearGradient></defs><defs><linearGradient id="grad2_4" x1="0%" y1="0%" x2="56.3%" y2="100%"><stop offset="14.444444444444446%" stop-color="#ff9c86" stop-opacity="1"></stop><stop offset="85.55555555555554%" stop-color="#ffac6d" stop-opacity="1"></stop></linearGradient></defs><defs><linearGradient id="grad2_5" x1="0%" y1="0%" x2="56.3%" y2="100%"><stop offset="14.444444444444446%" stop-color="#ffc056" stop-opacity="1"></stop><stop offset="85.55555555555554%" stop-color="#ffac6d" stop-opacity="1"></stop></linearGradient></defs><defs><linearGradient id="grad2_6" x1="0%" y1="0%" x2="56.3%" y2="100%"><stop offset="14.444444444444446%" stop-color="#ffc056" stop-opacity="1"></stop><stop offset="85.55555555555554%" stop-color="#ffd543" stop-opacity="1"></stop></linearGradient></defs><defs><linearGradient id="grad2_7" x1="0%" y1="0%" x2="56.3%" y2="100%"><stop offset="14.444444444444446%" stop-color="#ffeb3b" stop-opacity="1"></stop><stop offset="85.55555555555554%" stop-color="#ffd543" stop-opacity="1"></stop></linearGradient></defs><g transform="translate(960, 0)"><path d="M0 540C-83 506.9 -166 473.9 -250 433C-334 392.1 -419.1 343.5 -467.7 270C-516.2 196.5 -528.1 98.3 -540 0L0 0Z" fill="#ffe03d"></path><path d="M0 472.5C-72.6 443.6 -145.2 414.6 -218.7 378.9C-292.3 343.1 -366.8 300.5 -409.2 236.3C-451.6 172 -462.1 86 -472.5 0L0 0Z" fill="#ffcb4b"></path><path d="M0 405C-62.2 380.2 -124.5 355.4 -187.5 324.8C-250.5 294.1 -314.4 257.6 -350.7 202.5C-387.1 147.4 -396.1 73.7 -405 0L0 0Z" fill="#ffb661"></path><path d="M0 337.5C-51.9 316.8 -103.7 296.2 -156.2 270.6C-208.8 245.1 -262 214.7 -292.3 168.8C-322.6 122.8 -330.1 61.4 -337.5 0L0 0Z" fill="#ffa379"></path><path d="M0 270C-41.5 253.5 -83 236.9 -125 216.5C-167 196.1 -209.6 171.7 -233.8 135C-258.1 98.3 -264 49.1 -270 0L0 0Z" fill="#ff9592"></path><path d="M0 202.5C-31.1 190.1 -62.2 177.7 -93.7 162.4C-125.3 147.1 -157.2 128.8 -175.4 101.3C-193.6 73.7 -198 36.8 -202.5 0L0 0Z" fill="#ff8daa"></path><path d="M0 135C-20.7 126.7 -41.5 118.5 -62.5 108.3C-83.5 98 -104.8 85.9 -116.9 67.5C-129 49.1 -132 24.6 -135 0L0 0Z" fill="#ff8abe"></path><path d="M0 67.5C-10.4 63.4 -20.7 59.2 -31.2 54.1C-41.8 49 -52.4 42.9 -58.5 33.8C-64.5 24.6 -66 12.3 -67.5 0L0 0Z" fill="#ff8ac6"></path></g><g transform="translate(0, 540)"><path d="M0 -540C112.4 -536.2 224.7 -532.4 270 -467.7C315.3 -402.9 293.5 -277.1 327.4 -189C361.2 -100.9 450.6 -50.4 540 0L0 0Z" fill="#ffe03d"></path><path d="M0 -472.5C98.3 -469.2 196.6 -465.9 236.2 -409.2C275.9 -352.5 256.8 -242.5 286.4 -165.4C316 -88.3 394.3 -44.1 472.5 0L0 0Z" fill="#ffcb4b"></path><path d="M0 -405C84.3 -402.2 168.5 -399.3 202.5 -350.7C236.5 -302.2 220.2 -207.8 245.5 -141.8C270.9 -75.7 337.9 -37.8 405 0L0 0Z" fill="#ffb661"></path><path d="M0 -337.5C70.2 -335.1 140.4 -332.8 168.7 -292.3C197.1 -251.8 183.5 -173.2 204.6 -118.1C225.7 -63.1 281.6 -31.5 337.5 0L0 0Z" fill="#ffa379"></path><path d="M0 -270C56.2 -268.1 112.4 -266.2 135 -233.8C157.6 -201.4 146.8 -138.6 163.7 -94.5C180.6 -50.4 225.3 -25.2 270 0L0 0Z" fill="#ff9592"></path><path d="M0 -202.5C42.1 -201.1 84.3 -199.7 101.2 -175.4C118.2 -151.1 110.1 -103.9 122.8 -70.9C135.4 -37.8 169 -18.9 202.5 0L0 0Z" fill="#ff8daa"></path><path d="M0 -135C28.1 -134.1 56.2 -133.1 67.5 -116.9C78.8 -100.7 73.4 -69.3 81.8 -47.3C90.3 -25.2 112.6 -12.6 135 0L0 0Z" fill="#ff8abe"></path><path d="M0 -67.5C14 -67 28.1 -66.6 33.7 -58.5C39.4 -50.4 36.7 -34.6 40.9 -23.6C45.1 -12.6 56.3 -6.3 67.5 0L0 0Z" fill="#ff8ac6"></path></g></svg>