<svg width="139" height="128" viewBox="0 0 139 128" fill="none" xmlns="http://www.w3.org/2000/svg">
<mask id="path-1-outside-1_24_94" maskUnits="userSpaceOnUse" x="0.220764" y="23.5" width="68" height="81" fill="black">
<rect fill="white" x="0.220764" y="23.5" width="68" height="81"/>
<path d="M35.4866 29.4291C39.9321 29.4291 43.6366 29.6452 46.6002 30.0774C49.6256 30.4478 52.1571 31.0344 54.1946 31.837C57.2817 33.1336 59.35 34.8624 60.3997 37.0234C61.511 39.1226 62.0667 41.5306 62.0667 44.2472C62.0667 47.89 61.0788 50.8537 59.1031 53.1381C57.1891 55.4226 54.2872 56.5648 50.3974 56.5648C48.7304 56.5648 46.9707 56.4105 45.1184 56.1018C43.2662 55.7931 41.3522 55.33 39.3764 54.7126V52.1194C40.6112 54.4039 41.6917 56.9662 42.6179 59.8063C43.6057 62.6465 44.4084 65.5175 45.0258 68.4194C45.705 71.2595 46.1989 73.9762 46.5076 76.5693C46.8781 79.1008 47.0633 81.2618 47.0633 83.0523C47.0633 87.8682 46.0137 91.6036 43.9145 94.2585C41.8152 96.8517 38.3268 98.1483 33.4491 98.1483C29.1272 98.1483 25.8548 97.0061 23.6321 94.7216C21.4094 92.3754 20.298 88.8561 20.298 84.1637C20.298 81.9409 20.545 79.4404 21.0389 76.662C21.5329 73.8836 22.212 71.0125 23.0764 68.0489C23.9408 65.0853 24.9287 62.2451 26.0401 59.5285C27.1514 56.8118 28.2936 54.4347 29.4668 52.3972L29.8372 54.7126C28.8493 55.083 27.6454 55.4535 26.2253 55.8239C24.8669 56.1326 23.4777 56.4105 22.0577 56.6574C20.6993 56.8427 19.4645 56.9353 18.3531 56.9353C14.0929 56.9353 11.0675 56.0092 9.27701 54.1569C7.54822 52.2429 6.68383 49.588 6.68383 46.1921C6.68383 43.2902 7.33213 40.6971 8.62872 38.4126C9.98705 36.1281 12.1172 34.245 15.019 32.7632C17.3035 31.5901 20.0819 30.7565 23.3543 30.2626C26.6266 29.7069 30.6707 29.4291 35.4866 29.4291Z"/>
</mask>
<path d="M35.4866 29.4291C39.9321 29.4291 43.6366 29.6452 46.6002 30.0774C49.6256 30.4478 52.1571 31.0344 54.1946 31.837C57.2817 33.1336 59.35 34.8624 60.3997 37.0234C61.511 39.1226 62.0667 41.5306 62.0667 44.2472C62.0667 47.89 61.0788 50.8537 59.1031 53.1381C57.1891 55.4226 54.2872 56.5648 50.3974 56.5648C48.7304 56.5648 46.9707 56.4105 45.1184 56.1018C43.2662 55.7931 41.3522 55.33 39.3764 54.7126V52.1194C40.6112 54.4039 41.6917 56.9662 42.6179 59.8063C43.6057 62.6465 44.4084 65.5175 45.0258 68.4194C45.705 71.2595 46.1989 73.9762 46.5076 76.5693C46.8781 79.1008 47.0633 81.2618 47.0633 83.0523C47.0633 87.8682 46.0137 91.6036 43.9145 94.2585C41.8152 96.8517 38.3268 98.1483 33.4491 98.1483C29.1272 98.1483 25.8548 97.0061 23.6321 94.7216C21.4094 92.3754 20.298 88.8561 20.298 84.1637C20.298 81.9409 20.545 79.4404 21.0389 76.662C21.5329 73.8836 22.212 71.0125 23.0764 68.0489C23.9408 65.0853 24.9287 62.2451 26.0401 59.5285C27.1514 56.8118 28.2936 54.4347 29.4668 52.3972L29.8372 54.7126C28.8493 55.083 27.6454 55.4535 26.2253 55.8239C24.8669 56.1326 23.4777 56.4105 22.0577 56.6574C20.6993 56.8427 19.4645 56.9353 18.3531 56.9353C14.0929 56.9353 11.0675 56.0092 9.27701 54.1569C7.54822 52.2429 6.68383 49.588 6.68383 46.1921C6.68383 43.2902 7.33213 40.6971 8.62872 38.4126C9.98705 36.1281 12.1172 34.245 15.019 32.7632C17.3035 31.5901 20.0819 30.7565 23.3543 30.2626C26.6266 29.7069 30.6707 29.4291 35.4866 29.4291Z" fill="url(#paint0_radial_24_94)"/>
<path d="M46.6003 30.0774L45.765 35.8051L45.8307 35.8147L45.8967 35.8228L46.6003 30.0774ZM54.1946 31.837L56.436 26.5003L56.3763 26.4752L56.3161 26.4515L54.1946 31.837ZM60.3997 37.0234L55.193 39.5523L55.2369 39.6428L55.284 39.7317L60.3997 37.0234ZM59.1031 53.1381L54.725 49.3517L54.6953 49.386L54.6662 49.4207L59.1031 53.1381ZM39.3764 54.7126H33.5881V58.9681L37.6499 60.2374L39.3764 54.7126ZM39.3764 52.1194L44.4684 49.3669L33.5881 52.1194H39.3764ZM42.6179 59.8063L37.1147 61.6008L37.1322 61.6545L37.1508 61.7079L42.6179 59.8063ZM45.0258 68.4194L39.3642 69.624L39.3793 69.695L39.3962 69.7656L45.0258 68.4194ZM46.5076 76.5694L40.7599 77.2536L40.7691 77.3307L40.7803 77.4075L46.5076 76.5694ZM43.9145 94.2585L48.4134 97.9005L48.4343 97.8747L48.4549 97.8487L43.9145 94.2585ZM23.6321 94.7216L19.43 98.7025L19.4566 98.7305L19.4834 98.7581L23.6321 94.7216ZM26.0401 59.5285L31.3974 61.7201L31.3974 61.7201L26.0401 59.5285ZM29.4668 52.3972L35.1824 51.4827L32.6015 35.352L24.4504 49.509L29.4668 52.3972ZM29.8372 54.7126L31.8696 60.1324L36.3005 58.4708L35.5529 53.7981L29.8372 54.7126ZM26.2253 55.8239L27.5081 61.4683L27.5976 61.448L27.6864 61.4248L26.2253 55.8239ZM22.0577 56.6574L22.8398 62.3927L22.9449 62.3784L23.0495 62.3602L22.0577 56.6574ZM9.27701 54.1569L4.98147 58.0367L5.04715 58.1095L5.11526 58.1799L9.27701 54.1569ZM8.62872 38.4126L3.65343 35.4543L3.62354 35.5046L3.59467 35.5554L8.62872 38.4126ZM15.019 32.7632L17.6515 37.9183L17.6632 37.9123L15.019 32.7632ZM23.3543 30.2626L24.2182 35.9861L24.2708 35.9782L24.3233 35.9693L23.3543 30.2626ZM35.4866 29.4291V35.2174C39.7726 35.2174 43.1756 35.4275 45.765 35.8051L46.6003 30.0774L47.4355 24.3496C44.0976 23.8628 40.0915 23.6407 35.4866 23.6407V29.4291ZM46.6003 30.0774L45.8967 35.8228C48.6104 36.1551 50.6297 36.654 52.073 37.2225L54.1946 31.837L56.3161 26.4515C53.6844 25.4148 50.6408 24.7406 47.3038 24.3319L46.6003 30.0774ZM54.1946 31.837L51.9531 37.1738C54.2529 38.1397 54.9626 39.0779 55.193 39.5523L60.3997 37.0234L65.6063 34.4944C63.7375 30.6469 60.3105 28.1276 56.436 26.5003L54.1946 31.837ZM60.3997 37.0234L55.284 39.7317C55.8937 40.8834 56.2784 42.3378 56.2784 44.2472H62.0667H67.855C67.855 40.7233 67.1283 37.3618 65.5153 34.3151L60.3997 37.0234ZM62.0667 44.2472H56.2784C56.2784 46.7992 55.6125 48.3255 54.725 49.3517L59.1031 53.1381L63.4812 56.9246C66.5452 53.3819 67.855 48.9809 67.855 44.2472H62.0667ZM59.1031 53.1381L54.6662 49.4207C54.167 50.0165 53.1347 50.7765 50.3974 50.7765V56.5648V62.3532C55.4397 62.3532 60.2111 60.8287 63.54 56.8555L59.1031 53.1381ZM50.3974 56.5648V50.7765C49.0862 50.7765 47.6465 50.6549 46.07 50.3922L45.1184 56.1018L44.1668 61.8114C46.2949 62.166 48.3746 62.3532 50.3974 62.3532V56.5648ZM45.1184 56.1018L46.07 50.3922C44.505 50.1313 42.8503 49.7338 41.1029 49.1877L39.3764 54.7126L37.6499 60.2374C39.854 60.9262 42.0273 61.4548 44.1668 61.8114L45.1184 56.1018ZM39.3764 54.7126H45.1647V52.1194H39.3764H33.5881V54.7126H39.3764ZM39.3764 52.1194L34.2844 54.8718C35.3312 56.8084 36.2808 59.0435 37.1147 61.6008L42.6179 59.8063L48.121 58.0118C47.1027 54.8888 45.8913 51.9993 44.4684 49.3669L39.3764 52.1194ZM42.6179 59.8063L37.1508 61.7079C38.0604 64.3231 38.7977 66.9614 39.3642 69.624L45.0258 68.4194L50.6874 67.2148C50.0191 64.0735 49.1511 60.9698 48.0849 57.9047L42.6179 59.8063ZM45.0258 68.4194L39.3962 69.7656C40.0292 72.4126 40.4806 74.9074 40.7599 77.2536L46.5076 76.5694L52.2554 75.8851C51.9173 73.0449 51.3808 70.1064 50.6554 67.0732L45.0258 68.4194ZM46.5076 76.5694L40.7803 77.4075C41.1258 79.7685 41.275 81.6329 41.275 83.0523H47.0633H52.8517C52.8517 80.8906 52.6304 78.4331 52.235 75.7312L46.5076 76.5694ZM47.0633 83.0523H41.275C41.275 87.1031 40.3849 89.3899 39.374 90.6684L43.9145 94.2585L48.4549 97.8487C51.6425 93.8173 52.8517 88.6333 52.8517 83.0523H47.0633ZM43.9145 94.2585L39.4155 90.6165C38.8501 91.315 37.4139 92.36 33.4491 92.36V98.1483V103.937C39.2396 103.937 44.7804 102.388 48.4134 97.9005L43.9145 94.2585ZM33.4491 98.1483V92.36C30.1162 92.36 28.5699 91.4961 27.7808 90.6851L23.6321 94.7216L19.4834 98.7581C23.1398 102.516 28.1382 103.937 33.4491 103.937V98.1483ZM23.6321 94.7216L27.8342 90.7407C27.01 89.8707 26.0864 88.0395 26.0864 84.1637H20.298H14.5097C14.5097 89.6726 15.8088 94.88 19.43 98.7025L23.6321 94.7216ZM20.298 84.1637H26.0864C26.0864 82.357 26.2884 80.2037 26.7379 77.6751L21.0389 76.662L15.3399 75.6488C14.8016 78.677 14.5097 81.5249 14.5097 84.1637H20.298ZM21.0389 76.662L26.7379 77.6751C27.1922 75.1197 27.8218 72.4518 28.6332 69.6696L23.0764 68.0489L17.5196 66.4282C16.6023 69.5733 15.8735 72.6475 15.3399 75.6488L21.0389 76.662ZM23.0764 68.0489L28.6332 69.6696C29.444 66.8897 30.3663 64.2408 31.3974 61.7201L26.0401 59.5285L20.6827 57.3368C19.4911 60.2495 18.4376 63.2808 17.5196 66.4282L23.0764 68.0489ZM26.0401 59.5285L31.3974 61.7201C32.4337 59.1869 33.4661 57.0516 34.4831 55.2854L29.4668 52.3972L24.4504 49.509C23.1212 51.8178 21.8691 54.4367 20.6827 57.3368L26.0401 59.5285ZM29.4668 52.3972L23.7511 53.3117L24.1216 55.6271L29.8372 54.7126L35.5529 53.7981L35.1824 51.4827L29.4668 52.3972ZM29.8372 54.7126L27.8048 49.2928C27.0604 49.5719 26.0594 49.8851 24.7642 50.223L26.2253 55.8239L27.6864 61.4248C29.2313 61.0218 30.6382 60.5941 31.8696 60.1324L29.8372 54.7126ZM26.2253 55.8239L24.9425 50.1795C23.6839 50.4656 22.3918 50.7241 21.0659 50.9547L22.0577 56.6574L23.0495 62.3602C24.5637 62.0969 26.05 61.7997 27.5081 61.4683L26.2253 55.8239ZM22.0577 56.6574L21.2756 50.9222C20.1192 51.0799 19.1509 51.1469 18.3531 51.1469V56.9353V62.7236C19.7781 62.7236 21.2795 62.6055 22.8398 62.3927L22.0577 56.6574ZM18.3531 56.9353V51.1469C14.6839 51.1469 13.6075 50.3084 13.4388 50.1339L9.27701 54.1569L5.11526 58.1799C8.52754 61.7099 13.5019 62.7236 18.3531 62.7236V56.9353ZM9.27701 54.1569L13.5726 50.277C13.0758 49.7271 12.4722 48.6184 12.4722 46.1921H6.68383H0.895488C0.895488 50.5575 2.02061 54.7586 4.98147 58.0367L9.27701 54.1569ZM6.68383 46.1921H12.4722C12.4722 44.1844 12.911 42.5942 13.6628 41.2697L8.62872 38.4126L3.59467 35.5554C1.75322 38.7999 0.895488 42.3961 0.895488 46.1921H6.68383ZM8.62872 38.4126L13.604 41.3709C14.29 40.2171 15.5019 39.016 17.6515 37.9183L15.019 32.7632L12.3866 27.608C8.73246 29.474 5.68405 32.0392 3.65343 35.4543L8.62872 38.4126ZM15.019 32.7632L17.6632 37.9123C19.2547 37.095 21.3967 36.412 24.2182 35.9861L23.3543 30.2626L22.4903 24.5391C18.7671 25.1011 15.3523 26.0851 12.3749 27.614L15.019 32.7632ZM23.3543 30.2626L24.3233 35.9693C27.168 35.4862 30.8643 35.2174 35.4866 35.2174V29.4291V23.6407C30.4772 23.6407 26.0852 23.9276 22.3852 24.556L23.3543 30.2626Z" fill="black" mask="url(#path-1-outside-1_24_94)"/>
<mask id="path-3-outside-2_24_94" maskUnits="userSpaceOnUse" x="58.6571" y="22.5" width="78" height="82" fill="black">
<rect fill="white" x="58.6571" y="22.5" width="78" height="82"/>
<path d="M117.392 98.2409C115.169 98.2409 113.224 97.8396 111.557 97.0369C109.89 96.1725 108.593 94.6907 107.667 92.5915C106.741 90.4922 106.278 87.5595 106.278 83.7932C106.278 80.4591 106.525 76.9398 107.019 73.2353C107.513 69.469 108.13 65.641 108.871 61.7512C109.674 57.8614 110.415 54.126 111.094 50.545H110.724C108.81 58.5715 106.741 64.3135 104.518 67.7711C102.296 71.2286 99.7951 72.9574 97.0167 72.9574C95.2879 72.9574 93.7135 72.34 92.2934 71.1052C90.9351 69.8703 89.6076 67.555 88.311 64.1591C87.0145 60.7633 85.6561 55.8548 84.2361 49.4336H83.8656C84.2978 51.9033 84.73 54.5273 85.1622 57.3057C85.6561 60.0841 86.1192 62.8934 86.5514 65.7336C86.9836 68.512 87.3232 71.1669 87.5701 73.6983C87.8789 76.2298 88.0332 78.4834 88.0332 80.4591C88.0332 83.2993 87.6936 85.8924 87.0145 88.2387C86.3353 90.5231 85.1622 92.3445 83.4951 93.7028C81.8281 95.0612 79.5128 95.7403 76.5491 95.7403C72.5976 95.7403 69.6649 94.5672 67.7509 92.221C65.8986 89.8131 64.9724 85.8616 64.9724 80.3665C64.9724 78.082 65.0342 75.4271 65.1577 72.4017C65.3429 69.3146 65.559 66.1349 65.806 62.8626C66.1147 59.5902 66.4543 56.4105 66.8247 53.3234C67.1952 50.2362 67.5656 47.5505 67.9361 45.266C68.8005 40.0796 70.3132 36.406 72.4741 34.245C74.6969 32.0223 77.5061 30.9109 80.902 30.9109C83.1247 30.9109 85.2857 31.5283 87.3849 32.7632C89.4842 33.9363 91.3982 36.159 93.127 39.4313C94.9175 42.6419 96.3376 47.2726 97.3872 53.3234H97.7576C98.7455 47.0256 100.011 42.1171 101.555 38.5978C103.16 35.0785 104.951 32.6397 106.926 31.2813C108.902 29.8613 111.032 29.1512 113.317 29.1512C116.898 29.1512 119.738 30.3243 121.837 32.6705C123.936 34.955 125.48 38.1965 126.468 42.395C127.27 45.7908 127.95 49.7114 128.505 54.1569C129.123 58.6023 129.586 63.1713 129.895 67.8637C130.203 72.4944 130.358 76.8472 130.358 80.9222C130.358 87.2816 129.184 91.758 126.838 94.3511C124.492 96.9443 121.343 98.2409 117.392 98.2409Z"/>
</mask>
<path d="M117.392 98.2409C115.169 98.2409 113.224 97.8396 111.557 97.0369C109.89 96.1725 108.593 94.6907 107.667 92.5915C106.741 90.4922 106.278 87.5595 106.278 83.7932C106.278 80.4591 106.525 76.9398 107.019 73.2353C107.513 69.469 108.13 65.641 108.871 61.7512C109.674 57.8614 110.415 54.126 111.094 50.545H110.724C108.81 58.5715 106.741 64.3135 104.518 67.7711C102.296 71.2286 99.7951 72.9574 97.0167 72.9574C95.2879 72.9574 93.7135 72.34 92.2934 71.1052C90.9351 69.8703 89.6076 67.555 88.311 64.1591C87.0145 60.7633 85.6561 55.8548 84.2361 49.4336H83.8656C84.2978 51.9033 84.73 54.5273 85.1622 57.3057C85.6561 60.0841 86.1192 62.8934 86.5514 65.7336C86.9836 68.512 87.3232 71.1669 87.5701 73.6983C87.8789 76.2298 88.0332 78.4834 88.0332 80.4591C88.0332 83.2993 87.6936 85.8924 87.0145 88.2387C86.3353 90.5231 85.1622 92.3445 83.4951 93.7028C81.8281 95.0612 79.5128 95.7403 76.5491 95.7403C72.5976 95.7403 69.6649 94.5672 67.7509 92.221C65.8986 89.8131 64.9724 85.8616 64.9724 80.3665C64.9724 78.082 65.0342 75.4271 65.1577 72.4017C65.3429 69.3146 65.559 66.1349 65.806 62.8626C66.1147 59.5902 66.4543 56.4105 66.8247 53.3234C67.1952 50.2362 67.5656 47.5505 67.9361 45.266C68.8005 40.0796 70.3132 36.406 72.4741 34.245C74.6969 32.0223 77.5061 30.9109 80.902 30.9109C83.1247 30.9109 85.2857 31.5283 87.3849 32.7632C89.4842 33.9363 91.3982 36.159 93.127 39.4313C94.9175 42.6419 96.3376 47.2726 97.3872 53.3234H97.7576C98.7455 47.0256 100.011 42.1171 101.555 38.5978C103.16 35.0785 104.951 32.6397 106.926 31.2813C108.902 29.8613 111.032 29.1512 113.317 29.1512C116.898 29.1512 119.738 30.3243 121.837 32.6705C123.936 34.955 125.48 38.1965 126.468 42.395C127.27 45.7908 127.95 49.7114 128.505 54.1569C129.123 58.6023 129.586 63.1713 129.895 67.8637C130.203 72.4944 130.358 76.8472 130.358 80.9222C130.358 87.2816 129.184 91.758 126.838 94.3511C124.492 96.9443 121.343 98.2409 117.392 98.2409Z" fill="url(#paint1_radial_24_94)"/>
<path d="M111.557 97.0369L108.893 102.176L108.969 102.215L109.046 102.252L111.557 97.0369ZM107.019 73.2353L112.757 74.0003L112.758 73.9879L107.019 73.2353ZM108.871 61.7512L103.202 60.5814L103.193 60.6247L103.185 60.6681L108.871 61.7512ZM111.094 50.545L116.781 51.6235L118.083 44.7566H111.094V50.545ZM110.724 50.545V44.7566H106.153L105.093 49.2023L110.724 50.545ZM92.2934 71.1052L88.3998 75.3882L88.447 75.4312L88.4952 75.4731L92.2934 71.1052ZM84.2361 49.4336L89.8878 48.1837L88.8841 43.6452H84.2361V49.4336ZM83.8656 49.4336V43.6452H76.9763L78.1639 50.4314L83.8656 49.4336ZM85.1622 57.3057L79.4426 58.1954L79.4522 58.2573L79.4632 58.3189L85.1622 57.3057ZM86.5514 65.7336L80.8289 66.6044L80.8304 66.6138L80.8318 66.6233L86.5514 65.7336ZM87.5701 73.6983L81.8091 74.2604L81.8159 74.3298L81.8244 74.399L87.5701 73.6983ZM87.0145 88.2386L92.5628 89.8882L92.5687 89.8682L92.5745 89.8481L87.0145 88.2386ZM67.7509 92.221L63.1629 95.7502L63.2133 95.8159L63.2657 95.88L67.7509 92.221ZM65.1577 72.4017L59.3797 72.0551L59.3764 72.1103L59.3741 72.1657L65.1577 72.4017ZM65.806 62.8626L60.0432 62.3189L60.0381 62.3729L60.034 62.4269L65.806 62.8626ZM66.8247 53.3234L61.0776 52.6337H61.0776L66.8247 53.3234ZM67.9361 45.266L62.2265 44.3144L62.2244 44.3269L62.2224 44.3394L67.9361 45.266ZM72.4741 34.245L68.3812 30.152H68.3812L72.4741 34.245ZM87.3849 32.7632L84.4501 37.7523L84.5053 37.7848L84.5612 37.8161L87.3849 32.7632ZM93.127 39.4313L88.0089 42.1352L88.0396 42.1933L88.0716 42.2507L93.127 39.4313ZM97.3872 53.3234L91.684 54.3127L92.5165 59.1117H97.3872V53.3234ZM97.7576 53.3234V59.1117H102.709L103.476 54.2204L97.7576 53.3234ZM101.555 38.5978L96.2884 36.1956L96.2709 36.2341L96.2539 36.2729L101.555 38.5978ZM106.926 31.2813L110.206 36.0512L110.255 36.0169L110.305 35.9816L106.926 31.2813ZM121.837 32.6705L117.523 36.5302L117.549 36.5588L117.575 36.5871L121.837 32.6705ZM126.468 42.395L120.833 43.7207L120.835 43.7264L126.468 42.395ZM128.505 54.1569L122.762 54.8748L122.767 54.914L122.772 54.9532L128.505 54.1569ZM129.895 67.8637L124.119 68.2437L124.119 68.2487L129.895 67.8637ZM126.838 94.3511L131.131 98.2346L126.838 94.3511ZM117.392 98.2409V92.4526C115.866 92.4526 114.81 92.1787 114.068 91.8216L111.557 97.0369L109.046 102.252C111.638 103.5 114.472 104.029 117.392 104.029V98.2409ZM111.557 97.0369L114.222 91.8983C113.968 91.7667 113.479 91.4239 112.963 90.2551L107.667 92.5915L102.371 94.9279C103.708 97.9576 105.812 100.578 108.893 102.176L111.557 97.0369ZM107.667 92.5915L112.963 90.2551C112.505 89.2161 112.066 87.2071 112.066 83.7932H106.278H100.49C100.49 87.9119 100.978 91.7684 102.371 94.9279L107.667 92.5915ZM106.278 83.7932H112.066C112.066 80.7434 112.292 77.4811 112.757 74.0003L107.019 73.2353L101.281 72.4703C100.758 76.3986 100.49 80.1748 100.49 83.7932H106.278ZM107.019 73.2353L112.758 73.9879C113.237 70.3368 113.836 66.619 114.557 62.8343L108.871 61.7512L103.185 60.6681C102.424 64.6629 101.789 68.6011 101.28 72.4826L107.019 73.2353ZM108.871 61.7512L114.54 62.921C115.349 59.0035 116.096 55.2376 116.781 51.6235L111.094 50.545L105.407 49.4664C104.734 53.0144 103.999 56.7193 103.202 60.5814L108.871 61.7512ZM111.094 50.545V44.7566H110.724V50.545V56.3333H111.094V50.545ZM110.724 50.545L105.093 49.2023C103.21 57.1005 101.319 62.0443 99.6494 64.641L104.518 67.7711L109.387 70.9012C112.164 66.5827 114.409 60.0424 116.354 51.8876L110.724 50.545ZM104.518 67.7711L99.6494 64.641C98.8142 65.9401 98.1271 66.5934 97.6842 66.8996C97.306 67.1611 97.119 67.1691 97.0167 67.1691V72.9574V78.7458C102.599 78.7458 106.647 75.1641 109.387 70.9012L104.518 67.7711ZM97.0167 72.9574V67.1691C96.8117 67.1691 96.559 67.1437 96.0916 66.7372L92.2934 71.1052L88.4952 75.4731C90.868 77.5363 93.7641 78.7458 97.0167 78.7458V72.9574ZM92.2934 71.1052L96.1871 66.8221C95.884 66.5466 94.9491 65.3171 93.7186 62.0944L88.311 64.1591L82.9035 66.2239C84.2662 69.7928 85.9862 73.194 88.3998 75.3882L92.2934 71.1052ZM88.311 64.1591L93.7186 62.0944C92.5734 59.0951 91.2872 54.5111 89.8878 48.1837L84.2361 49.4336L78.5843 50.6835C80.0251 57.1985 81.4555 62.4315 82.9035 66.2239L88.311 64.1591ZM84.2361 49.4336V43.6452H83.8656V49.4336V55.2219H84.2361V49.4336ZM83.8656 49.4336L78.1639 50.4314C78.5891 52.8611 79.0154 55.4489 79.4426 58.1954L85.1622 57.3057L90.8817 56.416C90.4446 53.6058 90.0065 50.9455 89.5673 48.4358L83.8656 49.4336ZM85.1622 57.3057L79.4632 58.3189C79.9486 61.0491 80.4038 63.8109 80.8289 66.6044L86.5514 65.7336L92.2739 64.8628C91.8346 61.9759 91.3637 59.1192 90.8612 56.2926L85.1622 57.3057ZM86.5514 65.7336L80.8318 66.6233C81.2488 69.3041 81.5739 71.8493 81.8091 74.2604L87.5701 73.6983L93.3311 73.1363C93.0724 70.4845 92.7183 67.7199 92.2709 64.8439L86.5514 65.7336ZM87.5701 73.6983L81.8244 74.399C82.1124 76.7609 82.2449 78.7734 82.2449 80.4591H88.0332H93.8216C93.8216 78.1933 93.6453 75.6986 93.3159 72.9976L87.5701 73.6983ZM88.0332 80.4591H82.2449C82.2449 82.841 81.9599 84.8829 81.4544 86.6292L87.0145 88.2386L92.5745 89.8481C93.4274 86.9019 93.8216 83.7575 93.8216 80.4591H88.0332ZM87.0145 88.2386L81.4661 86.5891C81.0809 87.8849 80.5079 88.6704 79.8388 89.2155L83.4951 93.7029L87.1515 98.1902C89.8165 96.0187 91.5897 93.1614 92.5628 89.8882L87.0145 88.2386ZM83.4951 93.7029L79.8388 89.2155C79.5348 89.4632 78.6802 89.952 76.5491 89.952V95.7403V101.529C80.3454 101.529 84.1214 100.659 87.1515 98.1902L83.4951 93.7029ZM76.5491 95.7403V89.952C73.7655 89.952 72.7345 89.1731 72.236 88.5621L67.7509 92.221L63.2657 95.88C66.5952 99.9614 71.4297 101.529 76.5491 101.529V95.7403ZM67.7509 92.221L72.3388 88.6918C71.6798 87.8351 70.7608 85.4937 70.7608 80.3665H64.9724H59.1841C59.1841 86.2294 60.1174 91.7911 63.1629 95.7502L67.7509 92.221ZM64.9724 80.3665H70.7608C70.7608 78.1812 70.82 75.6081 70.9412 72.6378L65.1577 72.4017L59.3741 72.1657C59.2484 75.2461 59.1841 77.9828 59.1841 80.3665H64.9724ZM65.1577 72.4017L70.9356 72.7484C71.119 69.6927 71.333 66.5427 71.5779 63.2982L65.806 62.8626L60.034 62.4269C59.785 65.7271 59.5668 68.9366 59.3797 72.0551L65.1577 72.4017ZM65.806 62.8626L71.5687 63.4062C71.8731 60.1799 72.2075 57.0489 72.5718 54.013L66.8247 53.3234L61.0776 52.6337C60.701 55.7721 60.3563 59.0006 60.0432 62.3189L65.806 62.8626ZM66.8247 53.3234L72.5718 54.013C72.9358 50.9802 73.2956 48.3769 73.6498 46.1925L67.9361 45.266L62.2224 44.3394C61.8357 46.724 61.4546 49.4923 61.0776 52.6337L66.8247 53.3234ZM67.9361 45.266L73.6457 46.2176C74.4393 41.4559 75.6798 39.2253 76.5671 38.338L72.4741 34.245L68.3812 30.152C64.9465 33.5866 63.1617 38.7034 62.2265 44.3144L67.9361 45.266ZM72.4741 34.245L76.5671 38.338C77.6117 37.2934 78.9052 36.6992 80.902 36.6992V30.9109V25.1225C76.1071 25.1225 71.782 26.7511 68.3812 30.152L72.4741 34.245ZM80.902 30.9109V36.6992C81.9955 36.6992 83.1527 36.9892 84.4501 37.7523L87.3849 32.7632L90.3197 27.774C87.4187 26.0675 84.2539 25.1225 80.902 25.1225V30.9109ZM87.3849 32.7632L84.5612 37.8161C85.2914 38.2241 86.5416 39.3577 88.0089 42.1352L93.127 39.4313L98.245 36.7275C96.2548 32.9603 93.6769 29.6485 90.2086 27.7103L87.3849 32.7632ZM93.127 39.4313L88.0716 42.2507C89.4024 44.6369 90.6815 48.5336 91.684 54.3127L97.3872 53.3234L103.09 52.334C101.994 46.0116 100.433 40.6469 98.1823 36.612L93.127 39.4313ZM97.3872 53.3234V59.1117H97.7576V53.3234V47.535H97.3872V53.3234ZM97.7576 53.3234L103.476 54.2204C104.43 48.1373 105.6 43.7856 106.856 40.9228L101.555 38.5978L96.2539 36.2729C94.4224 40.4486 93.0608 45.914 92.0392 52.4264L97.7576 53.3234ZM101.555 38.5978L106.821 41C108.232 37.9072 109.473 36.5551 110.206 36.0512L106.926 31.2813L103.647 26.5115C100.429 28.7242 98.0883 32.2498 96.2884 36.1956L101.555 38.5978ZM106.926 31.2813L110.305 35.9816C111.364 35.2202 112.325 34.9396 113.317 34.9396V29.1512V23.3629C109.739 23.3629 106.44 24.5023 103.548 26.5811L106.926 31.2813ZM113.317 29.1512V34.9396C115.502 34.9396 116.679 35.5865 117.523 36.5302L121.837 32.6705L126.151 28.8109C122.797 25.0622 118.294 23.3629 113.317 23.3629V29.1512ZM121.837 32.6705L117.575 36.5871C118.79 37.9097 119.989 40.1307 120.833 43.7207L126.468 42.395L132.102 41.0692C130.971 36.2623 129.082 32.0003 126.099 28.754L121.837 32.6705ZM126.468 42.395L120.835 43.7264C121.578 46.8726 122.225 50.5811 122.762 54.8748L128.505 54.1569L134.249 53.4389C133.674 48.8417 132.963 44.709 132.101 41.0635L126.468 42.395ZM128.505 54.1569L122.772 54.9532C123.369 59.254 123.819 63.6839 124.119 68.2437L129.895 67.8637L135.67 67.4837C135.353 62.6586 134.876 57.9506 134.239 53.3606L128.505 54.1569ZM129.895 67.8637L124.119 68.2487C124.42 72.7684 124.569 76.9918 124.569 80.9222H130.358H136.146C136.146 76.7026 135.986 72.2203 135.67 67.4786L129.895 67.8637ZM130.358 80.9222H124.569C124.569 86.8991 123.402 89.5219 122.546 90.4677L126.838 94.3511L131.131 98.2346C134.967 93.994 136.146 87.6642 136.146 80.9222H130.358ZM126.838 94.3511L122.546 90.4677C121.446 91.6837 119.943 92.4526 117.392 92.4526V98.2409V104.029C122.743 104.029 127.538 102.205 131.131 98.2346L126.838 94.3511Z" fill="black" mask="url(#path-3-outside-2_24_94)"/>
<path d="M66.3517 70.4678C66.2084 71.88 65.7898 73.1867 65.1733 74.1598C64.5982 75.0674 63.62 76.0085 62.3126 75.8759C61.0053 75.7433 60.2359 74.6249 59.8549 73.6203C59.4464 72.5433 59.2986 71.1791 59.4418 69.7669C59.5851 68.3549 60.0038 67.048 60.6202 66.075C61.1953 65.1674 62.1735 64.2263 63.4809 64.3589C64.7882 64.4915 65.5575 65.6099 65.9386 66.6145C66.3471 67.6915 66.4949 69.0557 66.3517 70.4678Z" fill="#77FF80" stroke="black" stroke-width="2.31534"/>
<path d="M128.487 36.0827C130.748 35.6656 132.588 37.1691 133.72 38.6705C134.933 40.2801 135.851 42.4992 136.302 44.942C136.752 47.3848 136.687 49.7861 136.128 51.7228C135.606 53.5291 134.423 55.5892 132.162 56.0064C129.901 56.4234 128.061 54.9208 126.929 53.4195C125.716 51.81 124.798 49.59 124.347 47.1471C123.897 44.7044 123.962 42.3039 124.522 40.3673C125.043 38.5608 126.225 36.4999 128.487 36.0827Z" fill="#649DFF" stroke="black" stroke-width="4.05184"/>
<path d="M134.024 89.709C135.239 90.8147 135.18 92.5105 134.815 93.8031C134.425 95.1888 133.558 96.6695 132.364 97.9816C131.17 99.2937 129.777 100.295 128.434 100.814C127.181 101.298 125.498 101.516 124.283 100.41C123.069 99.3044 123.128 97.6088 123.492 96.3161C123.883 94.9302 124.749 93.449 125.943 92.1369C127.138 90.8248 128.531 89.8242 129.874 89.3053C131.127 88.8214 132.81 88.6034 134.024 89.709Z" fill="white" stroke="black" stroke-width="2.89417"/>
<path d="M72.8127 27.5511C74.4894 26.9704 76.1918 26.7586 77.6195 26.9456C78.9513 27.1201 80.533 27.7338 81.0706 29.2859C81.6079 30.838 80.7447 32.2987 79.8062 33.2593C78.8 34.2892 77.3308 35.1749 75.6543 35.7556C73.9777 36.3362 72.2754 36.549 70.8478 36.362C69.5162 36.1875 67.9344 35.5735 67.3967 34.0217C66.8592 32.4697 67.7227 31.009 68.6611 30.0483C69.6673 29.0184 71.1362 28.1318 72.8127 27.5511Z" fill="#EA5FFF" stroke="black" stroke-width="2.89417"/>
<path d="M15.6896 84.8138C17.2349 84.2578 18.706 85.1033 19.678 86.0301C20.7199 87.0237 21.6233 88.4822 22.2242 90.1516C22.825 91.8209 23.0583 93.5206 22.8886 94.9503C22.7303 96.284 22.1355 97.873 20.5902 98.4294C19.0447 98.9857 17.5738 98.1401 16.6018 97.2132C15.5598 96.2195 14.6555 94.7615 14.0546 93.092C13.4538 91.4226 13.2214 89.7227 13.3911 88.2929C13.5496 86.9592 14.1442 85.37 15.6896 84.8138Z" fill="#FFEA60" stroke="black" stroke-width="2.89417"/>
<path d="M24.976 23.8561C27.0956 23.6568 29.14 23.894 30.7509 24.5185C32.2536 25.101 33.9235 26.2669 34.1083 28.2292C34.2929 30.1916 32.8696 31.6492 31.5018 32.5018C30.0356 33.4156 28.0712 34.0299 25.9517 34.2293C23.8319 34.4287 21.7868 34.1916 20.1758 33.5671C18.6731 32.9844 17.0039 31.8178 16.8194 29.8553C16.635 27.893 18.0573 26.4363 19.4249 25.5838C20.8912 24.6697 22.8562 24.0555 24.976 23.8561Z" fill="#FF4B4B" stroke="black" stroke-width="3.47301"/>
<defs>
<radialGradient id="paint0_radial_24_94" cx="0" cy="0" r="1" gradientUnits="userSpaceOnUse" gradientTransform="translate(34.7208 64) rotate(90) scale(55.5 28.5)">
<stop stop-color="white"/>
<stop offset="1" stop-color="#FB4376"/>
</radialGradient>
<radialGradient id="paint1_radial_24_94" cx="0" cy="0" r="1" gradientUnits="userSpaceOnUse" gradientTransform="translate(98.1571 64) rotate(90) scale(55.5 35.5)">
<stop stop-color="white"/>
<stop offset="1" stop-color="#FB4376"/>
</radialGradient>
</defs>
</svg>
